<svg xmlns="http://www.w3.org/2000/svg" viewBox="0 0 72 72" width="64px" height="64px">
  <path d="M 33 9 C 29.686 9 27 11.686 27 15 L 18 15 C 13.582 15 10 18.582 10 23 L 10 27.1875 C 12.527 27.7845 22.792 30 36 30 C 49.208 30 59.473 27.7845 62 27.1875 L 62 23 C 62 18.582 58.418 15 54 15 L 45 15 C 45 11.686 42.314 9 39 9 L 33 9 z M 33 13 L 39 13 C 40.104 13 41 13.895 41 15 L 31 15 C 31 13.895 31.896 13 33 13 z M 10 34.267578 L 10 49 C 10 53.418 13.582 57 18 57 L 54 57 C 58.418 57 62 53.418 62 49 L 62 34.267578 C 58.75 34.951578 50.155 36.566734 40 36.927734 L 40 37 C 40 38.105 39.104 39 38 39 L 33 39 C 31.896 39 31 38.105 31 37 L 31 36.886719 C 21.284 36.460719 13.143 34.928578 10 34.267578 z" fill="#FFFFFF" />
</svg>