<svg xmlns="http://www.w3.org/2000/svg" viewBox="0 0 1440 320"><path fill="#091522" fill-opacity="1" d="M0,256L20,229.3C40,203,80,149,120,133.3C160,117,200,139,240,170.7C280,203,320,245,360,250.7C400,256,440,224,480,224C520,224,560,256,600,266.7C640,277,680,267,720,234.7C760,203,800,149,840,144C880,139,920,181,960,176C1000,171,1040,117,1080,112C1120,107,1160,149,1200,144C1240,139,1280,85,1320,53.3C1360,21,1400,11,1420,5.3L1440,0L1440,320L1420,320C1400,320,1360,320,1320,320C1280,320,1240,320,1200,320C1160,320,1120,320,1080,320C1040,320,1000,320,960,320C920,320,880,320,840,320C800,320,760,320,720,320C680,320,640,320,600,320C560,320,520,320,480,320C440,320,400,320,360,320C320,320,280,320,240,320C200,320,160,320,120,320C80,320,40,320,20,320L0,320Z"></path></svg>